<?xml version="1.0" encoding="UTF-8" standalone="no"?>
<!DOCTYPE svg PUBLIC "-//W3C//DTD SVG 1.1//EN" "http://www.w3.org/Graphics/SVG/1.1/DTD/svg11.dtd">
<svg width="100%" height="100%" viewBox="0 0 417 417" version="1.1" xmlns="http://www.w3.org/2000/svg" xmlns:xlink="http://www.w3.org/1999/xlink" xml:space="preserve" xmlns:serif="http://www.serif.com/" style="fill-rule:evenodd;clip-rule:evenodd;stroke-linejoin:round;stroke-miterlimit:2;">
    <g>
        <g>
            <path d="M344.649,204.32C336.842,207.94 328.335,209.821 319.582,209.823C309.19,209.824 298.917,207.064 289.871,201.841C272.985,192.092 262.099,174.666 260.351,155.623C241.208,153.874 223.833,142.897 214.135,126.1C204.388,109.218 203.67,88.69 211.673,71.327C199.422,62.72 190.881,49.836 187.747,35.184C146.049,36.522 107.765,51.583 77.245,75.974C85.242,83.726 89.976,94.496 89.976,106.113C89.976,120.981 82.204,134.059 70.515,141.525C63.997,145.688 56.267,148.113 47.976,148.113C42.135,148.113 36.438,146.902 31.196,144.615C31.17,144.642 31.144,144.668 31.118,144.695C29.156,150.134 27.445,155.692 25.982,161.35C22.086,176.423 20,192.219 20,208.496C20,312.433 104.559,396.992 208.495,396.992C249.607,396.992 287.675,383.749 318.687,361.322C319.341,360.735 320.18,360.118 321.154,359.48C332.769,350.792 343.371,340.822 352.703,329.74C341.891,322.002 335.043,309.338 335.043,295.547C335.043,286.397 337.993,277.928 342.98,271.021C350.319,260.857 362.085,254.105 375.429,253.596C375.952,253.567 376.486,253.547 377.044,253.547C377.448,253.547 377.851,253.561 378.254,253.573C379.659,245.298 380.526,236.843 380.802,228.24C366.147,225.109 353.26,216.57 344.649,204.32ZM132.435,334.871C119.342,334.871 107.632,328.846 99.923,319.426C93.708,312.101 89.947,302.631 89.947,292.295C89.947,269.136 108.788,250.295 131.947,250.295C145.04,250.295 156.751,256.32 164.459,265.74C170.674,273.065 174.435,282.535 174.435,292.871C174.435,316.03 155.595,334.871 132.435,334.871ZM160.194,183.688C147.101,183.688 135.391,177.663 127.682,168.243C121.467,160.918 117.706,151.448 117.706,141.112C117.706,117.953 136.547,99.112 159.706,99.112C172.799,99.112 184.509,105.137 192.218,114.557C198.433,121.882 202.194,131.352 202.194,141.688C202.194,164.846 183.354,183.688 160.194,183.688ZM246.963,314.835C230.149,314.835 215.108,307.108 205.196,295.02C197.267,285.619 192.475,273.49 192.475,260.258C192.475,230.482 216.7,206.258 246.475,206.258C263.289,206.258 278.33,213.985 288.242,226.073C296.171,235.474 300.963,247.603 300.963,260.835C300.963,290.611 276.738,314.835 246.963,314.835Z" style="fill:url(#_Linear1);fill-rule:nonzero;"/>
        </g>
        <g>
            <path d="M192.218,114.556C198.144,121.798 201.706,131.045 201.706,141.111C201.706,164.27 182.865,183.111 159.706,183.111C146.884,183.111 135.392,177.329 127.682,168.242C135.39,177.662 147.101,183.687 160.194,183.687C183.353,183.687 202.194,164.846 202.194,141.687C202.194,131.351 198.434,121.881 192.218,114.556Z" style="fill:rgb(137,99,74);fill-rule:nonzero;"/>
            <path d="M173.948,292.295C173.948,315.454 155.107,334.295 131.948,334.295C119.126,334.295 107.634,328.513 99.924,319.426C107.633,328.846 119.343,334.871 132.436,334.871C155.595,334.871 174.436,316.03 174.436,292.871C174.436,282.534 170.675,273.065 164.46,265.74C170.385,272.982 173.948,282.229 173.948,292.295Z" style="fill:rgb(137,99,74);fill-rule:nonzero;"/>
            <path d="M300.475,260.259C300.475,290.035 276.25,314.259 246.475,314.259C229.932,314.259 215.11,306.774 205.196,295.021C215.107,307.108 230.148,314.836 246.963,314.836C276.738,314.836 300.963,290.612 300.963,260.836C300.963,247.604 296.171,235.475 288.242,226.074C295.882,235.391 300.475,247.297 300.475,260.259Z" style="fill:rgb(137,99,74);fill-rule:nonzero;"/>
            <path d="M159.706,183.111C182.865,183.111 201.706,164.27 201.706,141.111C201.706,131.045 198.144,121.798 192.218,114.556C184.51,105.136 172.8,99.111 159.706,99.111C136.547,99.111 117.706,117.952 117.706,141.111C117.706,151.448 121.467,160.917 127.682,168.242C135.393,177.329 146.884,183.111 159.706,183.111ZM159.706,119.111C171.837,119.111 181.706,128.98 181.706,141.111C181.706,153.242 171.837,163.111 159.706,163.111C147.575,163.111 137.706,153.242 137.706,141.111C137.706,128.98 147.576,119.111 159.706,119.111Z" style="fill-rule:nonzero;"/>
            <path d="M131.948,334.295C155.107,334.295 173.948,315.454 173.948,292.295C173.948,282.229 170.386,272.982 164.46,265.74C156.752,256.32 145.041,250.295 131.948,250.295C108.789,250.295 89.948,269.136 89.948,292.295C89.948,302.632 93.709,312.101 99.924,319.426C107.634,328.513 119.125,334.295 131.948,334.295ZM131.948,270.295C144.079,270.295 153.948,280.164 153.948,292.295C153.948,304.426 144.079,314.295 131.948,314.295C119.817,314.295 109.948,304.426 109.948,292.295C109.948,280.164 119.817,270.295 131.948,270.295Z" style="fill-rule:nonzero;"/>
            <path d="M416.97,206.596L416.957,205.765C416.893,200.486 412.735,196.167 407.463,195.901C392.588,195.15 379.456,186.262 373.193,172.708C371.948,170.014 369.57,168.012 366.704,167.243C363.837,166.474 360.777,167.019 358.351,168.73C351.645,173.46 343.424,176.065 335.205,176.066C328.241,176.066 321.348,174.212 315.27,170.703C301.812,162.933 294.028,147.9 295.44,132.404C295.709,129.448 294.651,126.525 292.552,124.427C290.452,122.327 287.519,121.273 284.575,121.538C283.38,121.647 282.164,121.702 280.961,121.702C266.689,121.702 253.399,114.04 246.278,101.706C238.508,88.248 239.284,71.337 248.254,58.622C249.965,56.197 250.511,53.137 249.742,50.27C248.974,47.403 246.972,45.025 244.278,43.78C230.73,37.518 221.844,24.393 221.089,9.526C220.821,4.257 216.506,0.102 211.231,0.034L210.415,0.021C209.777,0.01 209.137,0 208.496,0C93.531,0 0.001,93.531 0.001,208.496C0.001,323.461 93.531,416.992 208.496,416.992C323.461,416.992 416.991,323.461 416.991,208.496C416.991,207.861 416.981,207.229 416.97,206.596ZM62.414,89.515C67.139,93.617 69.977,99.608 69.977,106.111C69.977,118.242 60.108,128.111 47.977,128.111C44.832,128.111 41.775,127.422 38.966,126.157C45.373,113.02 53.26,100.733 62.414,89.515ZM364.768,313.781C358.833,309.765 355.044,302.97 355.044,295.547C355.044,283.416 364.913,273.547 377.044,273.547C379.769,273.547 382.4,274.048 384.869,274.991C379.662,288.757 372.892,301.761 364.768,313.781ZM390.948,255.926C386.881,254.498 382.594,253.699 378.253,253.572C377.85,253.56 377.447,253.546 377.043,253.546C376.501,253.546 375.966,253.575 375.428,253.595C362.084,254.104 350.318,260.855 342.979,271.02C337.992,277.926 335.042,286.396 335.042,295.546C335.042,309.337 341.89,322 352.702,329.739C343.37,340.821 332.767,350.791 321.153,359.479C320.331,360.094 319.518,360.719 318.686,361.321C287.674,383.749 249.606,396.991 208.494,396.991C104.559,396.991 20,312.433 20,208.496C20,192.22 22.085,176.423 25.983,161.348C27.446,155.691 29.157,150.133 31.119,144.693C31.131,144.661 31.141,144.628 31.153,144.595C31.167,144.601 31.182,144.606 31.197,144.613C36.439,146.9 42.135,148.111 47.977,148.111C56.268,148.111 63.998,145.686 70.516,141.523C82.204,134.057 89.977,120.979 89.977,106.111C89.977,94.494 85.244,83.724 77.246,75.972C76.795,75.535 76.34,75.103 75.869,74.686C108.601,42.24 153.129,21.677 202.371,20.097C205.528,34.86 214.135,47.843 226.478,56.515C218.414,74.01 219.137,94.694 228.958,111.705C238.729,128.63 256.236,139.69 275.525,141.453C277.286,160.641 288.254,178.2 305.269,188.023C314.383,193.285 324.735,196.066 335.205,196.065C344.025,196.064 352.597,194.168 360.463,190.521C369.139,202.864 382.124,211.468 396.89,214.623C396.436,228.84 394.398,242.665 390.948,255.926Z" style="fill-rule:nonzero;"/>
            <path d="M246.475,314.259C276.25,314.259 300.475,290.035 300.475,260.259C300.475,247.298 295.882,235.391 288.242,226.074C278.331,213.987 263.29,206.259 246.475,206.259C216.7,206.259 192.475,230.483 192.475,260.259C192.475,273.491 197.267,285.62 205.196,295.021C215.11,306.774 229.932,314.259 246.475,314.259ZM246.475,226.259C265.223,226.259 280.475,241.511 280.475,260.259C280.475,279.006 265.223,294.259 246.475,294.259C227.727,294.259 212.475,279.006 212.475,260.259C212.475,241.511 227.727,226.259 246.475,226.259Z" style="fill-rule:nonzero;"/>
        </g>
    </g>
    <defs>
        <linearGradient id="_Linear1" x1="0" y1="0" x2="1" y2="0" gradientUnits="userSpaceOnUse" gradientTransform="matrix(360.802,0,0,361.808,20,216.088)"><stop offset="0" style="stop-color:rgb(45,192,196);stop-opacity:1"/><stop offset="1" style="stop-color:rgb(11,69,94);stop-opacity:1"/></linearGradient>
    </defs>
</svg>
