<svg xmlns="http://www.w3.org/2000/svg" viewBox="0 0 2100 2100"><defs><style>.cls-1,.cls-2{fill:#fff;}.cls-2{font-size:808.57px;stroke:#2dc0c4;stroke-linejoin:round;stroke-width:7px;font-family:Bitter-Bold, Bitter;font-weight:700;}</style></defs><g id="Layer_group" data-name="Layer group"><g id="Layer_group-2" data-name="Layer group"><g id="Vector_layer" data-name="Vector layer"><path class="cls-1" d="M613.85,1485.09,367.47,857.77l-82.94-29.92V737l378.11-5.34v96.18l-90.26,31,112.21,306.71,39,131.46,39-126.11,120.75-311-92.69-32.06V737l364.69-5.34v96.18l-89,32.06L809,1485.09Z"/></g></g></g><g id="Pixel_layer_Image" data-name="Pixel layer Image"><text class="cls-2" transform="translate(858.13 1489.94)">&amp;</text></g><g id="Layer_group-3" data-name="Layer group"><g id="Vector_layer-2" data-name="Vector layer"><path class="cls-1" d="M1295.49,1252.18h0v-1.05s0-.06,0-.09l1-62.52,64.73-21.61,5.94-352-64-23.31,1.07-63.66,197.39-1.14,81.5,1.08q19.07.26,36.73,2.18l.36,0h.12c40.09,4.41,73.8,15.15,100.29,31.38l.23.14.14.09A156.38,156.38,0,0,1,1743,777.9h0c30.71,27.24,46.83,64.69,46.07,110-.88,52.09-16.73,92.94-46.07,122.78h0c-40,40.64-105.19,61.25-193.86,61.25-2.56,0-5.13,0-7.73,0l-45.47-.6-1.63,97.34,64,23.31-1.07,63.66h0Zm201.9-268.48,45.45.59c1.14,0,2.28,0,3.4,0h0q11.16,0,21.27-1c18.65-1.83,34.59-6.17,47.58-12.94a84.92,84.92,0,0,0,11.49-7.21A72.18,72.18,0,0,0,1638,952.53l.06-.07.24-.28.25-.3.05,0a71.26,71.26,0,0,0,14.23-28.06.29.29,0,0,1,0-.09c0-.11,0-.21.08-.33a3,3,0,0,0,.08-.32.19.19,0,0,0,0-.08,96.23,96.23,0,0,0,2.73-21.79,109.41,109.41,0,0,0-.62-13.85c-2-17.82-8.56-33.14-19.65-44.84h0a1.85,1.85,0,0,0-.14-.14c-14.94-15.6-37.62-24.32-66.54-24.7l-68.62-.91Z"/></g></g></svg>